<svg width="330" height="330" viewBox="0 0 330 330" fill="none" xmlns="http://www.w3.org/2000/svg">
<g filter="url(#filter0_d)">
<circle cx="165" cy="165" r="115" fill="white"/>
</g>
<path fill-rule="evenodd" clip-rule="evenodd" d="M222.401 150.57C222.211 118.223 196.149 92 164 92C131.851 92 105.789 118.223 105.599 150.57C105.599 154.207 105.979 158.035 106.55 161.48H131.851C126.905 144.445 128.046 127.602 130.329 122.816C132.041 118.605 135.656 116.309 140.602 114.777C146.879 112.672 158.293 117.648 163.62 117.648C168.946 117.457 180.36 112.672 186.638 114.777C191.584 116.309 195.198 118.605 196.91 122.816C199.193 127.41 201.285 147.508 194.627 161.48H221.26C222.021 157.844 222.401 154.207 222.401 150.57Z" fill="#FE7E0D"/>
<path fill-rule="evenodd" clip-rule="evenodd" d="M123.29 165.883L122.91 170.477C122.72 171.434 122.72 172.582 122.72 173.539C122.53 174.687 122.149 175.453 121.388 175.453C120.817 175.453 120.437 175.262 120.247 175.07C120.057 174.688 119.676 174.305 119.486 173.539C118.915 172.199 118.535 171.242 117.964 170.477C117.013 169.52 115.871 168.945 114.35 168.945H112.257C111.686 168.945 111.496 169.328 111.496 169.902V194.594C111.496 195.934 111.686 197.082 112.067 197.848C112.447 198.613 113.208 198.996 114.35 199.379C114.54 199.379 114.92 199.379 115.491 199.57C116.062 199.57 116.442 199.953 116.442 200.527C116.442 201.102 116.252 201.293 116.062 201.484C115.491 201.102 115.111 201.102 114.73 201.102C113.779 201.102 112.447 201.102 110.735 200.91C109.023 200.719 107.692 200.719 106.74 200.719C105.789 200.719 104.458 200.719 102.746 200.91C101.033 201.102 99.7018 201.102 98.7506 201.102C98.1799 201.102 97.7995 201.102 97.419 200.91C97.2288 200.719 97.0386 200.527 97.0386 199.953C97.2288 199.57 97.2288 199.188 97.6093 199.188C97.9897 199.188 98.1799 198.996 98.5604 198.996C99.892 198.996 100.843 198.613 101.224 197.848C101.794 197.082 101.985 195.934 101.985 194.211V169.52C101.985 169.137 101.985 168.945 101.794 168.754C101.604 168.562 101.224 168.563 100.463 168.563C98.7506 168.563 97.6093 168.754 97.0386 168.945C95.8972 169.52 94.7558 170.668 93.4242 172.773C92.6632 173.922 92.2828 174.496 91.9023 174.688C91.7121 174.879 91.3316 175.07 90.9512 175.07C90.1902 175.07 90 174.687 90 173.922C90 173.73 90 173.348 90.1902 173.156C90.3805 172.773 90.3805 172.582 90.3805 172.391L92.2828 165.5C92.473 165.117 92.473 164.926 92.6632 164.734C92.8535 164.352 93.2339 164.16 93.6144 164.16C94.1851 164.16 94.5656 164.543 94.7558 165.117C94.946 165.691 94.946 166.074 94.946 166.074C95.1362 166.266 95.7069 166.457 96.4679 166.457H117.584C118.725 166.457 119.486 166.457 119.866 166.266C120.247 166.074 120.627 165.691 121.008 164.926C121.388 164.16 121.959 163.969 122.339 163.969C122.72 163.969 122.91 163.969 123.1 164.16C123.29 164.352 123.29 164.734 123.29 165.117C123.29 165.309 123.29 165.691 123.29 165.883ZM141.362 183.684C141.362 181.387 140.221 179.473 138.129 177.75C135.846 176.027 132.992 175.07 129.568 175.07C124.812 175.07 121.198 176.602 118.344 179.473C115.871 181.961 114.73 184.832 114.73 188.277C114.73 191.723 115.871 194.785 118.344 197.465C121.008 200.527 124.622 201.867 128.997 201.867C131.28 201.867 133.373 201.484 135.275 200.719C137.368 199.953 138.889 198.805 140.221 197.465C140.411 197.273 140.602 196.891 140.792 196.699C140.982 196.508 140.982 196.125 140.982 195.934C140.982 195.359 140.792 195.168 140.221 195.168C140.031 195.168 139.65 195.359 139.27 195.551C138.889 195.742 138.509 196.125 138.129 196.316C137.368 196.891 136.416 197.273 135.465 197.656C134.514 198.039 133.563 198.039 132.612 198.039C129.949 198.039 127.856 197.082 126.144 194.977C124.432 192.871 123.481 190.383 123.481 187.32C123.481 186.555 123.481 185.98 123.671 185.98C123.861 185.789 124.242 185.789 124.622 185.789H138.889C139.65 185.789 140.221 185.598 140.602 185.406C140.982 185.023 141.362 184.449 141.362 183.684ZM133.563 180.621C133.563 181.961 132.992 182.727 132.041 183.301C131.28 183.684 129.758 183.875 128.046 183.875H125.954C125.383 183.875 124.812 183.875 124.622 183.684C124.242 183.492 124.242 183.301 124.242 182.918C124.242 182.152 124.432 181.387 124.812 180.621C125.193 179.855 125.573 179.281 125.954 178.707C127.095 177.559 128.427 176.984 130.329 176.984C131.47 176.984 132.422 177.367 132.992 178.133C133.373 178.707 133.563 179.664 133.563 180.621ZM175.414 199.953C175.414 200.336 175.224 200.527 175.033 200.719C174.843 201.102 174.463 201.102 173.702 201.102C172.941 201.102 171.609 201.102 169.707 200.91C167.805 200.91 166.853 200.719 166.853 200.719C166.093 200.719 164.951 200.719 163.429 200.91C161.717 200.91 160.956 201.102 160.766 201.102C160.195 201.102 159.625 201.102 159.434 200.91C159.244 200.719 159.054 200.527 159.054 199.953C159.054 199.57 159.244 199.379 159.434 199.188C159.625 198.996 160.005 198.996 160.386 198.805C161.527 198.613 162.288 198.039 162.478 197.465C162.668 197.082 162.668 195.934 162.668 194.211V184.832C162.668 183.109 162.478 181.77 161.907 180.813C161.147 179.281 159.815 178.707 157.913 178.707C156.581 178.707 155.44 178.898 154.488 179.473C153.157 180.238 152.396 181.195 152.396 182.727V194.211C152.396 196.125 152.586 197.273 152.776 197.656C152.967 198.23 153.728 198.613 154.869 198.805C155.44 198.996 155.82 199.188 156.01 199.188C156.201 199.379 156.201 199.57 156.201 199.953C156.201 200.336 156.01 200.719 155.82 200.719C155.82 201.102 155.44 201.102 154.679 201.102C153.918 201.102 152.776 201.102 151.064 200.91C149.352 200.91 148.591 200.719 148.401 200.719C147.64 200.719 146.499 200.719 144.977 200.91C143.455 200.91 142.314 201.102 141.362 201.102C140.792 201.102 140.602 201.102 140.411 200.91C140.031 200.719 139.841 200.336 139.841 199.953C139.841 199.57 140.031 199.379 140.221 199.188C140.411 198.996 140.792 198.805 141.172 198.805C142.694 198.422 143.645 197.848 144.026 197.465C144.216 196.891 144.406 195.934 144.406 194.211V171.242C144.406 169.711 144.216 168.563 143.645 167.988C143.455 167.797 142.884 167.605 142.123 167.414C141.362 167.414 140.792 167.223 140.602 167.031C140.411 166.84 140.221 166.648 140.221 166.266C140.221 165.883 140.411 165.691 140.602 165.5C140.792 165.309 141.172 165.309 141.553 165.117C142.694 164.926 143.835 164.734 144.977 164.543C146.499 164.16 148.211 163.586 149.733 163.012C150.684 162.629 151.255 162.438 151.635 162.438C152.015 162.438 152.206 162.629 152.396 162.82C152.586 163.203 152.586 163.586 152.586 163.969V177.75C152.586 178.133 152.586 178.324 152.776 178.324L153.347 178.133C154.869 177.367 156.01 176.602 157.152 176.219C159.054 175.453 160.766 175.07 162.478 175.07C165.332 175.07 167.424 175.836 168.756 177.559C170.087 179.281 170.848 181.578 170.848 184.449V194.211C170.848 195.742 170.848 196.699 170.848 196.891C171.039 197.848 171.99 198.422 173.892 198.805C175.033 198.996 175.414 199.379 175.414 199.953ZM209.085 199.953C209.085 199.379 208.514 198.996 207.373 198.805C206.231 198.613 205.47 198.23 205.09 197.656C204.71 197.273 204.71 196.508 204.71 195.551V194.211V184.449C204.71 181.387 203.949 179.09 202.617 177.559C201.285 175.836 199.193 175.07 196.339 175.07C195.198 175.07 193.866 175.262 192.535 175.645C191.584 176.027 190.632 176.41 189.491 176.793C188.73 177.176 187.969 177.559 187.398 177.941C187.018 178.133 186.828 178.324 186.638 178.324C186.447 178.324 186.257 178.133 186.257 177.941C186.257 177.75 186.257 177.367 186.257 177.176V176.027C186.257 175.262 186.257 174.879 186.067 174.496C185.877 174.305 185.686 174.305 185.306 174.305C184.925 174.305 184.545 174.496 184.165 174.688C182.072 176.219 180.931 177.176 180.55 177.367C179.409 177.941 178.267 178.516 176.936 179.09C176.555 179.281 175.985 179.473 175.224 179.664C174.653 179.855 174.463 180.238 174.463 180.813C174.463 181.195 174.463 181.387 174.653 181.578C174.843 181.77 175.224 181.961 175.604 181.961H175.985C176.745 181.961 177.316 182.152 177.697 182.535C177.887 182.918 178.077 183.684 178.077 184.449V194.402V195.742C178.077 196.508 177.887 197.082 177.697 197.656C177.506 198.23 177.126 198.422 176.365 198.613L174.843 198.996C174.463 198.996 174.272 199.187 173.892 199.379C173.512 199.57 173.512 199.762 173.512 200.145C173.512 200.719 173.702 200.91 173.892 201.102C174.082 201.293 174.463 201.293 175.033 201.293C175.224 201.293 176.175 201.293 178.077 201.102C179.979 201.102 181.311 200.91 182.072 200.91C182.262 200.91 183.023 200.91 184.735 201.102C186.447 201.102 187.589 201.293 188.35 201.293C188.92 201.293 189.301 201.293 189.491 201.102C189.681 200.91 189.871 200.719 189.871 200.145C189.871 199.762 189.681 199.57 189.491 199.379C189.491 199.379 189.111 199.188 188.35 198.996L187.208 198.613C186.638 198.422 186.257 197.848 186.257 196.699C186.257 195.934 186.257 195.168 186.257 194.211V182.727C186.257 181.195 187.018 180.238 188.35 179.473C189.301 178.898 190.442 178.707 191.774 178.707C193.676 178.707 195.008 179.473 195.769 180.813C196.339 181.77 196.53 183.109 196.53 184.832V194.211C196.53 194.594 196.53 195.168 196.53 195.934C196.53 196.891 196.339 197.465 196.149 197.848C195.959 198.23 195.388 198.613 194.817 198.805C194.247 198.996 193.676 198.996 193.486 199.188C193.296 199.379 193.105 199.57 193.105 199.953C193.105 200.527 193.296 200.719 193.676 200.91C193.866 200.91 194.247 201.102 194.817 201.102C195.008 201.102 195.959 201.102 197.481 200.91C199.193 200.91 200.334 200.719 201.095 200.719C201.285 200.719 202.237 200.719 203.949 200.91C205.661 200.91 206.992 201.102 207.753 201.102C208.324 201.102 208.704 201.102 208.895 200.91C208.895 200.719 209.085 200.527 209.085 199.953ZM238 188.086C238 191.723 236.668 194.977 234.005 197.656C230.961 200.527 227.157 202.059 222.401 202.059C217.835 202.059 214.031 200.719 211.177 197.848C208.704 195.359 207.373 192.297 207.373 188.66C207.373 185.215 208.704 182.152 211.177 179.473C214.031 176.41 218.026 174.879 222.972 174.879C227.537 174.879 231.342 176.219 234.195 178.898C236.668 181.578 238 184.641 238 188.086ZM229.249 189.426C229.249 185.406 228.488 182.344 226.967 179.855C225.635 177.75 224.113 176.793 222.211 176.793C220.689 176.793 219.357 177.559 218.406 178.898C216.884 180.813 216.123 183.492 216.123 187.32C216.123 191.723 216.884 194.977 218.406 197.082C219.738 198.996 221.26 199.953 223.162 199.953C224.874 199.953 226.206 199.187 227.347 197.656C228.679 195.934 229.249 193.063 229.249 189.426Z" fill="black"/>
<path fill-rule="evenodd" clip-rule="evenodd" d="M144.787 219.859C144.787 224.836 142.884 229.047 139.27 232.492C135.085 236.129 129.758 238.043 122.72 238.043C121.769 238.043 120.437 238.043 118.535 237.852C116.632 237.66 115.301 237.66 114.35 237.66C113.398 237.66 112.067 237.66 110.355 237.852C108.643 238.043 107.311 238.043 106.36 238.043C105.789 238.043 105.409 238.043 105.028 237.852C104.838 237.66 104.648 237.469 104.648 237.086C104.648 236.703 104.838 236.512 105.219 236.32C105.599 236.32 105.789 236.129 106.17 236.129C107.501 236.129 108.452 235.746 108.833 234.98C109.404 234.215 109.594 232.875 109.594 231.344V210.289C109.594 208.758 109.404 207.801 109.213 207.418C109.213 206.844 108.452 206.652 107.121 206.652L105.409 206.844C104.838 206.844 104.648 206.461 104.648 205.887C104.648 205.312 105.219 204.93 106.17 204.738C107.311 204.547 108.072 204.355 108.833 204.355C111.877 203.781 114.54 203.398 116.632 203.207C118.915 203.016 120.817 202.824 122.72 202.824C129.568 202.824 135.085 204.547 139.08 207.992C142.884 211.055 144.787 215.074 144.787 219.859ZM135.275 220.625C135.275 215.84 134.134 212.012 131.851 209.141C129.568 206.27 126.524 204.738 122.72 204.738C120.817 204.738 119.676 205.121 119.296 206.078C119.105 206.461 118.915 207.227 118.915 207.801V208.566V230.004C118.915 231.152 118.915 232.109 119.105 233.066C119.296 234.023 119.676 234.789 120.247 235.363C120.627 235.555 121.008 235.937 121.388 235.937C121.959 236.129 122.53 236.129 123.291 236.129C126.334 236.129 128.997 234.789 131.28 232.301C134.134 229.43 135.275 225.602 135.275 220.625ZM172.18 220.625C172.18 221.391 171.99 221.965 171.609 222.348C171.229 222.539 170.658 222.73 169.897 222.73H155.63C155.059 222.73 154.869 222.73 154.679 222.922C154.488 223.113 154.488 223.496 154.488 224.262C154.488 227.324 155.44 230.004 157.152 231.918C158.864 234.023 161.147 234.98 163.62 234.98C164.571 234.98 165.522 234.789 166.473 234.598C167.424 234.215 168.375 233.832 169.136 233.258C169.517 233.066 169.897 232.684 170.278 232.492C170.658 232.301 170.848 232.109 171.229 232.109C171.799 232.109 171.99 232.301 171.99 232.875C171.99 233.258 171.99 233.449 171.799 233.641C171.609 233.832 171.419 234.215 171.229 234.406C169.897 235.746 168.375 236.703 166.283 237.66C164.19 238.426 162.098 238.809 160.005 238.809C155.63 238.809 152.015 237.277 149.352 234.406C146.879 231.727 145.738 228.664 145.738 225.219C145.738 221.773 146.879 218.711 149.352 216.223C152.015 213.352 155.82 211.82 160.576 211.82C164 211.82 166.853 212.777 169.136 214.5C171.039 216.414 172.18 218.328 172.18 220.625ZM164.38 217.562C164.38 216.605 164 215.84 163.429 215.074C162.859 214.309 161.907 213.926 160.766 213.926C159.054 213.926 157.532 214.5 156.391 215.648C155.82 216.223 155.44 216.797 155.249 217.562C154.869 218.328 154.679 219.094 154.679 219.859C154.679 220.242 154.869 220.625 155.059 220.625C155.44 220.816 155.82 220.816 156.391 220.816H158.483C160.386 220.816 161.717 220.625 162.478 220.242C164 219.668 164.38 218.902 164.38 217.562ZM207.943 237.086C207.943 237.469 207.753 237.852 207.563 238.043C207.373 238.234 206.802 238.234 206.422 238.234C205.661 238.234 204.329 238.234 202.617 238.043C200.905 238.043 199.954 237.852 199.764 237.852C199.003 237.852 197.861 237.852 196.149 238.043C194.437 238.043 193.676 238.234 193.486 238.234C192.915 238.234 192.535 238.234 192.344 238.043C191.964 237.852 191.774 237.469 191.774 237.086C191.774 236.703 191.964 236.512 192.154 236.32C192.344 236.129 192.915 236.129 193.486 235.937C194.057 235.746 194.627 235.555 194.817 234.98C195.008 234.598 195.198 233.832 195.198 233.066C195.198 232.301 195.198 231.727 195.198 231.344V221.965C195.198 220.242 195.008 218.902 194.437 217.945C193.676 216.414 192.344 215.84 190.442 215.84C189.111 215.84 187.969 216.031 187.018 216.605C185.877 217.18 185.116 218.328 185.116 219.668V231.152C185.116 231.918 185.116 232.875 185.116 233.641C185.116 234.789 185.496 235.363 186.067 235.555L187.208 235.937C187.969 236.129 188.35 236.32 188.35 236.32C188.54 236.512 188.73 236.703 188.73 237.086C188.73 237.469 188.54 237.852 188.35 238.043C188.159 238.234 187.779 238.234 187.208 238.234C186.447 238.234 185.306 238.234 183.594 238.043C181.882 238.043 180.931 237.852 180.931 237.852C180.17 237.852 178.838 237.852 176.936 238.043C175.033 238.043 174.082 238.234 173.892 238.234C173.321 238.234 172.941 238.234 172.751 238.043C172.56 237.852 172.37 237.66 172.37 237.086C172.37 236.703 172.56 236.512 172.751 236.32C173.131 236.129 173.321 236.129 173.702 235.937L175.224 235.555C175.794 235.363 176.365 234.98 176.555 234.598C176.746 234.023 176.936 233.449 176.936 232.684V231.344V221.391C176.936 220.625 176.746 219.859 176.555 219.477C176.365 219.094 175.794 218.902 174.843 218.902H174.463C173.892 218.902 173.702 218.711 173.512 218.52C173.321 218.328 173.321 218.137 173.321 217.754C173.321 217.18 173.512 216.988 174.082 216.605C174.843 216.414 175.414 216.223 175.794 216.031C177.126 215.648 178.458 215.074 179.409 214.309C179.789 214.117 180.931 213.16 183.023 211.629C183.404 211.246 183.784 211.246 184.165 211.246C184.355 211.246 184.545 211.437 184.735 211.629C184.925 211.82 184.925 212.395 184.925 213.16V214.309C184.925 214.5 184.925 214.883 184.925 215.074C184.925 215.266 185.116 215.457 185.306 215.457C185.496 215.457 185.686 215.266 186.067 215.074C186.638 214.691 187.398 214.309 188.159 213.926C189.111 213.352 190.252 212.969 191.203 212.777C192.535 212.395 193.676 212.203 195.008 212.203C197.861 212.203 199.954 212.969 201.285 214.691C202.617 216.414 203.378 218.711 203.378 221.582V231.344V232.684C203.378 233.832 203.568 234.406 203.758 234.789C204.139 235.363 204.9 235.746 206.041 235.937C207.373 236.129 207.943 236.512 207.943 237.086ZM224.684 233.832C224.684 233.449 224.494 233.066 223.923 233.066C223.733 233.066 223.542 233.066 223.162 233.258C222.781 233.449 222.401 233.641 222.021 234.023C221.26 234.406 220.689 234.598 220.118 234.598C218.977 234.598 218.406 234.215 217.835 233.449C217.455 232.684 217.265 230.77 217.265 227.898V216.605C217.265 216.223 217.265 216.031 217.455 215.84C217.645 215.648 217.835 215.457 218.216 215.457H222.782C222.972 215.457 223.162 215.457 223.542 215.266C223.733 215.266 223.923 215.074 223.923 214.691V213.734C223.923 213.16 223.542 212.777 222.972 212.777H218.596C218.216 212.777 218.026 212.777 217.645 212.586C217.455 212.395 217.265 212.203 217.265 211.82V206.844C217.265 205.887 216.884 205.504 216.314 205.504C215.933 205.504 215.743 205.695 215.362 205.887C215.172 206.078 214.792 206.652 214.411 207.418C213.841 208.566 213.08 209.523 212.319 210.098C211.177 211.246 209.846 212.012 207.943 212.969C207.373 213.16 206.992 213.352 206.422 213.543C205.28 213.926 204.71 214.5 204.71 215.074C204.71 215.457 204.71 215.648 204.9 215.648C205.09 215.84 205.28 215.84 205.851 215.84H207.373C207.943 215.84 208.324 215.84 208.514 216.031C208.704 216.223 208.704 216.605 208.704 216.988V231.152C208.704 233.066 209.085 234.598 209.656 235.937C210.797 238.043 212.509 239 215.172 239C216.694 239 218.026 238.809 219.167 238.426C220.308 238.043 221.26 237.469 222.401 236.512C222.781 236.129 223.162 235.746 223.542 235.363C224.494 234.789 224.684 234.215 224.684 233.832Z" fill="#FE7E0D"/>
<defs>
<filter id="filter0_d" x="0" y="0" width="330" height="330" filterUnits="userSpaceOnUse" color-interpolation-filters="sRGB">
<feFlood flood-opacity="0" result="BackgroundImageFix"/>
<feColorMatrix in="SourceAlpha" type="matrix" values="0 0 0 0 0 0 0 0 0 0 0 0 0 0 0 0 0 0 127 0"/>
<feOffset/>
<feGaussianBlur stdDeviation="25"/>
<feColorMatrix type="matrix" values="0 0 0 0 0.484716 0 0 0 0 0.484716 0 0 0 0 0.484716 0 0 0 0.25 0"/>
<feBlend mode="normal" in2="BackgroundImageFix" result="effect1_dropShadow"/>
<feBlend mode="normal" in="SourceGraphic" in2="effect1_dropShadow" result="shape"/>
</filter>
</defs>
</svg>
